<mxfile host="Electron" agent="Mozilla/5.0 (Windows NT 10.0; Win64; x64) AppleWebKit/537.36 (KHTML, like Gecko) draw.io/28.1.2 Chrome/138.0.7204.243 Electron/37.4.0 Safari/537.36" version="28.1.2">
  <diagram name="Page-1" id="cvp8Ttgezb52wSlUfO7G">
    <mxGraphModel dx="1410" dy="833" grid="0" gridSize="10" guides="1" tooltips="1" connect="1" arrows="1" fold="1" page="0" pageScale="1" pageWidth="850" pageHeight="1100" math="0" shadow="0">
      <root>
        <mxCell id="0" />
        <mxCell id="1" parent="0" />
        <mxCell id="WCd7DcYiWZYeORMtGCoj-3" value="" style="rounded=0;whiteSpace=wrap;html=1;fillColor=none;dashed=1;strokeColor=#3C3C3C;" parent="1" vertex="1">
          <mxGeometry x="40" y="200" width="150" height="410" as="geometry" />
        </mxCell>
        <mxCell id="WCd7DcYiWZYeORMtGCoj-4" value="Sources" style="rounded=1;whiteSpace=wrap;html=1;fontSize=24;strokeColor=none;" parent="1" vertex="1">
          <mxGeometry x="60" y="171" width="120" height="60" as="geometry" />
        </mxCell>
        <mxCell id="WCd7DcYiWZYeORMtGCoj-5" value="" style="whiteSpace=wrap;html=1;aspect=fixed;dashed=1;gradientColor=none;fillColor=none;" parent="1" vertex="1">
          <mxGeometry x="231" y="200" width="409" height="409" as="geometry" />
        </mxCell>
        <mxCell id="WCd7DcYiWZYeORMtGCoj-6" value="Data Warehouse" style="rounded=1;whiteSpace=wrap;html=1;fontSize=24;strokeColor=none;" parent="1" vertex="1">
          <mxGeometry x="330" y="169" width="190" height="60" as="geometry" />
        </mxCell>
        <mxCell id="WCd7DcYiWZYeORMtGCoj-7" value="" style="rounded=0;whiteSpace=wrap;html=1;fillColor=none;dashed=1;strokeColor=#3C3C3C;" parent="1" vertex="1">
          <mxGeometry x="660" y="199" width="160" height="410" as="geometry" />
        </mxCell>
        <mxCell id="WCd7DcYiWZYeORMtGCoj-8" value="Consumers" style="rounded=1;whiteSpace=wrap;html=1;fontSize=24;strokeColor=none;" parent="1" vertex="1">
          <mxGeometry x="660" y="169" width="160" height="60" as="geometry" />
        </mxCell>
        <mxCell id="WCd7DcYiWZYeORMtGCoj-10" value="Bronze Layer" style="rounded=0;whiteSpace=wrap;html=1;fillColor=#a0522d;fontColor=#ffffff;strokeColor=#6D1F00;fontSize=14;fontStyle=1" parent="1" vertex="1">
          <mxGeometry x="240" y="240" width="120" height="18" as="geometry" />
        </mxCell>
        <mxCell id="WCd7DcYiWZYeORMtGCoj-11" value="" style="rounded=0;whiteSpace=wrap;html=1;fillColor=none;fontColor=#ffffff;strokeColor=#6D1F00;fontSize=20;" parent="1" vertex="1">
          <mxGeometry x="240" y="260" width="120" height="320" as="geometry" />
        </mxCell>
        <mxCell id="WCd7DcYiWZYeORMtGCoj-12" value="Silver Layer" style="rounded=0;whiteSpace=wrap;html=1;fillColor=#647687;fontColor=#ffffff;strokeColor=#314354;fontSize=14;fontStyle=1" parent="1" vertex="1">
          <mxGeometry x="380" y="240" width="110" height="18" as="geometry" />
        </mxCell>
        <mxCell id="WCd7DcYiWZYeORMtGCoj-13" value="" style="rounded=0;whiteSpace=wrap;html=1;fillColor=none;strokeColor=#23445D;fontSize=20;" parent="1" vertex="1">
          <mxGeometry x="380" y="260" width="110" height="320" as="geometry" />
        </mxCell>
        <mxCell id="WCd7DcYiWZYeORMtGCoj-14" value="Gold Layer" style="rounded=0;whiteSpace=wrap;html=1;fillColor=#e3c800;fontColor=#000000;strokeColor=#B09500;fontSize=14;fontStyle=1" parent="1" vertex="1">
          <mxGeometry x="500" y="240" width="120" height="18" as="geometry" />
        </mxCell>
        <mxCell id="WCd7DcYiWZYeORMtGCoj-15" value="" style="rounded=0;whiteSpace=wrap;html=1;fillColor=none;fontColor=#000000;strokeColor=#B09500;fontSize=20;" parent="1" vertex="1">
          <mxGeometry x="500" y="260" width="120" height="320" as="geometry" />
        </mxCell>
        <mxCell id="idA23eLzwnvXHclKKF_t-1" value="" style="image;aspect=fixed;html=1;points=[];align=center;fontSize=12;image=img/lib/azure2/general/Folder_Blank.svg;" parent="1" vertex="1">
          <mxGeometry x="91.52" y="250" width="49.29" height="40" as="geometry" />
        </mxCell>
        <mxCell id="idA23eLzwnvXHclKKF_t-2" value="" style="image;aspect=fixed;html=1;points=[];align=center;fontSize=12;image=img/lib/azure2/general/File.svg;" parent="1" vertex="1">
          <mxGeometry x="127.67999999999999" y="260" width="24.35" height="30" as="geometry" />
        </mxCell>
        <mxCell id="idA23eLzwnvXHclKKF_t-3" value="CRM" style="rounded=0;whiteSpace=wrap;html=1;fontSize=9;fontStyle=1" parent="1" vertex="1">
          <mxGeometry x="103.84" y="290" width="32.32" height="20" as="geometry" />
        </mxCell>
        <mxCell id="idA23eLzwnvXHclKKF_t-4" value="" style="image;aspect=fixed;html=1;points=[];align=center;fontSize=12;image=img/lib/azure2/general/Folder_Blank.svg;" parent="1" vertex="1">
          <mxGeometry x="95.36" y="370" width="49.29" height="40" as="geometry" />
        </mxCell>
        <mxCell id="idA23eLzwnvXHclKKF_t-5" value="" style="image;aspect=fixed;html=1;points=[];align=center;fontSize=12;image=img/lib/azure2/general/File.svg;" parent="1" vertex="1">
          <mxGeometry x="127.67999999999999" y="380" width="24.35" height="30" as="geometry" />
        </mxCell>
        <mxCell id="idA23eLzwnvXHclKKF_t-6" value="ERP" style="rounded=0;whiteSpace=wrap;html=1;fontSize=9;fontStyle=1" parent="1" vertex="1">
          <mxGeometry x="103.84" y="410" width="32.32" height="20" as="geometry" />
        </mxCell>
        <mxCell id="idA23eLzwnvXHclKKF_t-11" value="" style="endArrow=none;html=1;rounded=0;strokeWidth=2;" parent="1" edge="1">
          <mxGeometry width="50" height="50" relative="1" as="geometry">
            <mxPoint x="182" y="463" as="sourcePoint" />
            <mxPoint x="52" y="463" as="targetPoint" />
          </mxGeometry>
        </mxCell>
        <mxCell id="idA23eLzwnvXHclKKF_t-12" value="&lt;font&gt;&lt;b style=&quot;&quot;&gt;Object Type&lt;/b&gt;: csv Files&lt;/font&gt;&lt;div&gt;&lt;font&gt;&lt;br&gt;&lt;/font&gt;&lt;/div&gt;&lt;div&gt;&lt;font&gt;&lt;b style=&quot;&quot;&gt;Interface&lt;/b&gt;: Files in Folder&lt;/font&gt;&lt;/div&gt;" style="text;html=1;align=center;verticalAlign=middle;whiteSpace=wrap;rounded=0;" parent="1" vertex="1">
          <mxGeometry x="38" y="498" width="160" height="50" as="geometry" />
        </mxCell>
        <mxCell id="idA23eLzwnvXHclKKF_t-13" value="" style="html=1;verticalLabelPosition=bottom;align=center;labelBackgroundColor=#ffffff;verticalAlign=top;strokeWidth=2;strokeColor=#6D1F00;shadow=0;dashed=0;shape=mxgraph.ios7.icons.data;fillColor=#a0522d;fontColor=#ffffff;" parent="1" vertex="1">
          <mxGeometry x="267.5" y="280" width="65" height="80" as="geometry" />
        </mxCell>
        <mxCell id="idA23eLzwnvXHclKKF_t-14" value="" style="html=1;verticalLabelPosition=bottom;align=center;labelBackgroundColor=#ffffff;verticalAlign=top;strokeWidth=2;strokeColor=#314354;shadow=0;dashed=0;shape=mxgraph.ios7.icons.data;fillColor=#647687;fontColor=#ffffff;" parent="1" vertex="1">
          <mxGeometry x="403" y="280" width="65" height="80" as="geometry" />
        </mxCell>
        <mxCell id="idA23eLzwnvXHclKKF_t-15" value="" style="html=1;verticalLabelPosition=bottom;align=center;labelBackgroundColor=#ffffff;verticalAlign=top;strokeWidth=2;strokeColor=#B09500;shadow=0;dashed=0;shape=mxgraph.ios7.icons.data;fillColor=#e3c800;fontColor=#000000;" parent="1" vertex="1">
          <mxGeometry x="529" y="280" width="60" height="80" as="geometry" />
        </mxCell>
        <mxCell id="idA23eLzwnvXHclKKF_t-16" value="" style="shape=flexArrow;endArrow=classic;html=1;rounded=0;fillColor=#b1ddf0;strokeColor=#10739e;" parent="1" edge="1">
          <mxGeometry width="50" height="50" relative="1" as="geometry">
            <mxPoint x="190" y="329.76" as="sourcePoint" />
            <mxPoint x="229" y="329.76" as="targetPoint" />
          </mxGeometry>
        </mxCell>
        <mxCell id="idA23eLzwnvXHclKKF_t-18" value="" style="shape=flexArrow;endArrow=classic;html=1;rounded=0;fillColor=#b1ddf0;strokeColor=#10739e;" parent="1" edge="1">
          <mxGeometry width="50" height="50" relative="1" as="geometry">
            <mxPoint x="356" y="329.76" as="sourcePoint" />
            <mxPoint x="396" y="329.76" as="targetPoint" />
          </mxGeometry>
        </mxCell>
        <mxCell id="idA23eLzwnvXHclKKF_t-19" value="" style="shape=flexArrow;endArrow=classic;html=1;rounded=0;fillColor=#b1ddf0;strokeColor=#10739e;" parent="1" edge="1">
          <mxGeometry width="50" height="50" relative="1" as="geometry">
            <mxPoint x="480" y="329.76" as="sourcePoint" />
            <mxPoint x="520" y="329.76" as="targetPoint" />
          </mxGeometry>
        </mxCell>
        <mxCell id="idA23eLzwnvXHclKKF_t-20" value="" style="shape=flexArrow;endArrow=classic;html=1;rounded=0;fillColor=#b1ddf0;strokeColor=#10739e;" parent="1" edge="1">
          <mxGeometry width="50" height="50" relative="1" as="geometry">
            <mxPoint x="620" y="329.76" as="sourcePoint" />
            <mxPoint x="660" y="329.76" as="targetPoint" />
          </mxGeometry>
        </mxCell>
        <mxCell id="idA23eLzwnvXHclKKF_t-21" value="&lt;font style=&quot;font-size: 10px;&quot;&gt;Raw Data&lt;/font&gt;" style="text;html=1;align=center;verticalAlign=middle;whiteSpace=wrap;rounded=0;" parent="1" vertex="1">
          <mxGeometry x="270" y="361" width="60" height="30" as="geometry" />
        </mxCell>
        <mxCell id="idA23eLzwnvXHclKKF_t-22" value="&lt;font style=&quot;font-size: 10px;&quot;&gt;Cleaned, Standardized Data&lt;/font&gt;" style="text;html=1;align=center;verticalAlign=middle;whiteSpace=wrap;rounded=0;" parent="1" vertex="1">
          <mxGeometry x="390" y="362" width="90" height="40" as="geometry" />
        </mxCell>
        <mxCell id="idA23eLzwnvXHclKKF_t-23" value="&lt;font style=&quot;font-size: 10px;&quot;&gt;Business-Ready Data&lt;/font&gt;" style="text;html=1;align=center;verticalAlign=middle;whiteSpace=wrap;rounded=0;" parent="1" vertex="1">
          <mxGeometry x="514" y="366" width="90" height="30" as="geometry" />
        </mxCell>
        <mxCell id="idA23eLzwnvXHclKKF_t-24" value="" style="endArrow=none;html=1;rounded=0;strokeWidth=2;" parent="1" edge="1">
          <mxGeometry width="50" height="50" relative="1" as="geometry">
            <mxPoint x="343" y="402.24" as="sourcePoint" />
            <mxPoint x="261" y="402" as="targetPoint" />
          </mxGeometry>
        </mxCell>
        <mxCell id="idA23eLzwnvXHclKKF_t-25" value="" style="endArrow=none;html=1;rounded=0;strokeWidth=2;" parent="1" edge="1">
          <mxGeometry width="50" height="50" relative="1" as="geometry">
            <mxPoint x="475" y="402.24" as="sourcePoint" />
            <mxPoint x="393" y="402" as="targetPoint" />
          </mxGeometry>
        </mxCell>
        <mxCell id="idA23eLzwnvXHclKKF_t-26" value="" style="endArrow=none;html=1;rounded=0;strokeWidth=2;" parent="1" edge="1">
          <mxGeometry width="50" height="50" relative="1" as="geometry">
            <mxPoint x="600" y="402.24" as="sourcePoint" />
            <mxPoint x="518" y="402" as="targetPoint" />
          </mxGeometry>
        </mxCell>
        <mxCell id="idA23eLzwnvXHclKKF_t-27" value="&lt;div style=&quot;line-height: 110%;&quot;&gt;&lt;div&gt;&lt;font style=&quot;font-size: 10px; line-height: 110%;&quot;&gt;&lt;b style=&quot;background-color: transparent; color: light-dark(rgb(0, 0, 0), rgb(255, 255, 255));&quot;&gt;Object Type&lt;/b&gt;&lt;span style=&quot;background-color: transparent; color: light-dark(rgb(0, 0, 0), rgb(255, 255, 255));&quot;&gt;: Tables&lt;/span&gt;&lt;/font&gt;&lt;/div&gt;&lt;div&gt;&lt;font style=&quot;font-size: 10px;&quot;&gt;&lt;br&gt;&lt;/font&gt;&lt;/div&gt;&lt;div&gt;&lt;font style=&quot;font-size: 10px; line-height: 110%;&quot;&gt;&lt;b&gt;Load&lt;/b&gt;:&amp;nbsp;&lt;/font&gt;&lt;/div&gt;&lt;div&gt;&lt;ul&gt;&lt;li&gt;&lt;span style=&quot;background-color: transparent; color: light-dark(rgb(0, 0, 0), rgb(255, 255, 255));&quot;&gt;&lt;font style=&quot;font-size: 10px; line-height: 110%;&quot;&gt;Batch Processing&lt;/font&gt;&lt;/span&gt;&lt;/li&gt;&lt;li&gt;&lt;span style=&quot;background-color: transparent; color: light-dark(rgb(0, 0, 0), rgb(255, 255, 255));&quot;&gt;&lt;font style=&quot;font-size: 10px; line-height: 110%;&quot;&gt;Full Load&lt;/font&gt;&lt;/span&gt;&lt;/li&gt;&lt;li&gt;&lt;span style=&quot;background-color: transparent; color: light-dark(rgb(0, 0, 0), rgb(255, 255, 255));&quot;&gt;&lt;font style=&quot;font-size: 10px; line-height: 110%;&quot;&gt;Truncate &amp;amp; Insert&lt;/font&gt;&lt;/span&gt;&lt;/li&gt;&lt;/ul&gt;&lt;div&gt;&lt;span&gt;&lt;b&gt;&lt;font style=&quot;font-size: 10px; line-height: 110%;&quot;&gt;No Transformations&lt;/font&gt;&lt;/b&gt;&lt;/span&gt;&lt;/div&gt;&lt;/div&gt;&lt;div&gt;&lt;b&gt;&lt;font style=&quot;font-size: 10px;&quot;&gt;&lt;br&gt;&lt;/font&gt;&lt;/b&gt;&lt;/div&gt;&lt;div&gt;&lt;span&gt;&lt;font style=&quot;font-size: 10px; line-height: 110%;&quot;&gt;&lt;b&gt;Data Model: &lt;/b&gt;None (as-is)&lt;/font&gt;&lt;/span&gt;&lt;/div&gt;&lt;/div&gt;" style="text;html=1;align=left;verticalAlign=top;whiteSpace=wrap;rounded=0;fontSize=9;" parent="1" vertex="1">
          <mxGeometry x="240" y="410" width="118" height="160" as="geometry" />
        </mxCell>
        <mxCell id="idA23eLzwnvXHclKKF_t-28" value="&lt;div style=&quot;line-height: 100%;&quot;&gt;&lt;div&gt;&lt;font style=&quot;line-height: 100%; font-size: 7px;&quot;&gt;&lt;b style=&quot;background-color: transparent; color: light-dark(rgb(0, 0, 0), rgb(255, 255, 255));&quot;&gt;Object Type&lt;/b&gt;&lt;span style=&quot;background-color: transparent; color: light-dark(rgb(0, 0, 0), rgb(255, 255, 255));&quot;&gt;: Tables&lt;/span&gt;&lt;/font&gt;&lt;/div&gt;&lt;div&gt;&lt;font style=&quot;font-size: 7px;&quot;&gt;&lt;br&gt;&lt;/font&gt;&lt;/div&gt;&lt;div&gt;&lt;font style=&quot;line-height: 100%; font-size: 7px;&quot;&gt;&lt;b&gt;Load&lt;/b&gt;:&amp;nbsp;&lt;/font&gt;&lt;/div&gt;&lt;div&gt;&lt;ul&gt;&lt;li&gt;&lt;span style=&quot;background-color: transparent; color: light-dark(rgb(0, 0, 0), rgb(255, 255, 255));&quot;&gt;&lt;font style=&quot;line-height: 100%; font-size: 7px;&quot;&gt;Batch Processing&lt;/font&gt;&lt;/span&gt;&lt;/li&gt;&lt;li&gt;&lt;span style=&quot;background-color: transparent; color: light-dark(rgb(0, 0, 0), rgb(255, 255, 255));&quot;&gt;&lt;font style=&quot;line-height: 100%; font-size: 7px;&quot;&gt;Full Load&lt;/font&gt;&lt;/span&gt;&lt;/li&gt;&lt;li&gt;&lt;span style=&quot;background-color: transparent; color: light-dark(rgb(0, 0, 0), rgb(255, 255, 255));&quot;&gt;&lt;font style=&quot;line-height: 100%; font-size: 7px;&quot;&gt;Truncate &amp;amp; Insert&lt;/font&gt;&lt;/span&gt;&lt;/li&gt;&lt;/ul&gt;&lt;div&gt;&lt;span&gt;&lt;b&gt;&lt;font style=&quot;line-height: 100%; font-size: 7px;&quot;&gt;Transformations:&lt;/font&gt;&lt;/b&gt;&lt;/span&gt;&lt;/div&gt;&lt;/div&gt;&lt;div&gt;&lt;ul&gt;&lt;li&gt;&lt;span&gt;&lt;font style=&quot;line-height: 100%; font-size: 7px;&quot;&gt;Data Cleaning&lt;/font&gt;&lt;/span&gt;&lt;/li&gt;&lt;li&gt;&lt;span&gt;&lt;font style=&quot;line-height: 100%; font-size: 7px;&quot;&gt;Data Standardization&lt;/font&gt;&lt;/span&gt;&lt;/li&gt;&lt;li&gt;&lt;span&gt;&lt;font style=&quot;line-height: 100%; font-size: 7px;&quot;&gt;Data Normalization&lt;/font&gt;&lt;/span&gt;&lt;/li&gt;&lt;li&gt;&lt;span&gt;&lt;font style=&quot;line-height: 100%; font-size: 7px;&quot;&gt;Derived Columns&lt;/font&gt;&lt;/span&gt;&lt;/li&gt;&lt;li&gt;&lt;span&gt;&lt;font style=&quot;line-height: 100%; font-size: 7px;&quot;&gt;Data Enrichment&lt;/font&gt;&lt;/span&gt;&lt;/li&gt;&lt;/ul&gt;&lt;/div&gt;&lt;div&gt;&lt;b&gt;&lt;font style=&quot;font-size: 7px;&quot;&gt;&lt;br&gt;&lt;/font&gt;&lt;/b&gt;&lt;/div&gt;&lt;div&gt;&lt;span&gt;&lt;font style=&quot;line-height: 100%; font-size: 7px;&quot;&gt;&lt;b style=&quot;&quot;&gt;Data Model: &lt;/b&gt;None (as-is)&lt;/font&gt;&lt;/span&gt;&lt;/div&gt;&lt;/div&gt;" style="text;html=1;align=left;verticalAlign=top;whiteSpace=wrap;rounded=0;fontSize=9;" parent="1" vertex="1">
          <mxGeometry x="381" y="406" width="110" height="180" as="geometry" />
        </mxCell>
        <mxCell id="idA23eLzwnvXHclKKF_t-30" value="&lt;div style=&quot;line-height: 100%;&quot;&gt;&lt;div&gt;&lt;font style=&quot;font-size: 7px; line-height: 100%;&quot;&gt;&lt;b style=&quot;background-color: transparent; color: light-dark(rgb(0, 0, 0), rgb(255, 255, 255));&quot;&gt;Object Type&lt;/b&gt;&lt;span style=&quot;background-color: transparent; color: light-dark(rgb(0, 0, 0), rgb(255, 255, 255));&quot;&gt;: Views&lt;/span&gt;&lt;/font&gt;&lt;/div&gt;&lt;div&gt;&lt;font style=&quot;font-size: 7px;&quot;&gt;&lt;br&gt;&lt;/font&gt;&lt;/div&gt;&lt;div&gt;&lt;font style=&quot;font-size: 7px; line-height: 100%;&quot;&gt;&lt;b&gt;No Load&lt;/b&gt;&lt;/font&gt;&lt;/div&gt;&lt;div&gt;&lt;font style=&quot;font-size: 7px; line-height: 100%;&quot;&gt;&lt;b&gt;&lt;br&gt;&lt;/b&gt;&lt;/font&gt;&lt;/div&gt;&lt;div&gt;&lt;div&gt;&lt;span&gt;&lt;b&gt;&lt;font style=&quot;font-size: 7px; line-height: 100%;&quot;&gt;Transformations:&lt;/font&gt;&lt;/b&gt;&lt;/span&gt;&lt;/div&gt;&lt;/div&gt;&lt;div&gt;&lt;ul&gt;&lt;li&gt;&lt;span&gt;&lt;font style=&quot;font-size: 7px; line-height: 100%;&quot;&gt;Data Integration&lt;/font&gt;&lt;/span&gt;&lt;/li&gt;&lt;li&gt;&lt;span&gt;&lt;font style=&quot;font-size: 7px; line-height: 100%;&quot;&gt;Aggregation&lt;/font&gt;&lt;/span&gt;&lt;/li&gt;&lt;li&gt;&lt;span&gt;&lt;font style=&quot;font-size: 7px; line-height: 100%;&quot;&gt;Business Logics&lt;/font&gt;&lt;/span&gt;&lt;/li&gt;&lt;/ul&gt;&lt;/div&gt;&lt;div&gt;&lt;b style=&quot;font-size: 7px; background-color: transparent; color: light-dark(rgb(0, 0, 0), rgb(255, 255, 255));&quot;&gt;Data Model:&amp;nbsp;&lt;/b&gt;&lt;/div&gt;&lt;div&gt;&lt;ul&gt;&lt;li&gt;&lt;span style=&quot;font-size: 7px; background-color: transparent; color: light-dark(rgb(0, 0, 0), rgb(255, 255, 255));&quot;&gt;Star Schema&lt;/span&gt;&lt;/li&gt;&lt;li&gt;&lt;span style=&quot;font-size: 7px; background-color: transparent; color: light-dark(rgb(0, 0, 0), rgb(255, 255, 255));&quot;&gt;Flat Table&lt;/span&gt;&lt;/li&gt;&lt;li&gt;&lt;span style=&quot;font-size: 7px; background-color: transparent; color: light-dark(rgb(0, 0, 0), rgb(255, 255, 255));&quot;&gt;Aggregated Table&lt;/span&gt;&lt;/li&gt;&lt;/ul&gt;&lt;/div&gt;&lt;/div&gt;" style="text;html=1;align=left;verticalAlign=top;whiteSpace=wrap;rounded=0;fontSize=9;" parent="1" vertex="1">
          <mxGeometry x="504" y="406" width="116" height="180" as="geometry" />
        </mxCell>
        <mxCell id="idA23eLzwnvXHclKKF_t-31" value="" style="image;aspect=fixed;html=1;points=[];align=center;fontSize=12;image=img/lib/azure2/analytics/Power_BI_Embedded.svg;" parent="1" vertex="1">
          <mxGeometry x="680" y="250" width="51" height="68" as="geometry" />
        </mxCell>
        <mxCell id="idA23eLzwnvXHclKKF_t-32" value="" style="verticalLabelPosition=bottom;sketch=0;aspect=fixed;html=1;verticalAlign=top;strokeColor=none;align=center;outlineConnect=0;shape=mxgraph.citrix.reporting;" parent="1" vertex="1">
          <mxGeometry x="740" y="250" width="61.5" height="69" as="geometry" />
        </mxCell>
        <mxCell id="idA23eLzwnvXHclKKF_t-33" value="" style="sketch=0;html=1;aspect=fixed;strokeColor=none;shadow=0;fillColor=#3B8DF1;verticalAlign=top;labelPosition=center;verticalLabelPosition=bottom;shape=mxgraph.gcp2.big_query" parent="1" vertex="1">
          <mxGeometry x="710.3" y="377" width="59.4" height="60" as="geometry" />
        </mxCell>
        <mxCell id="idA23eLzwnvXHclKKF_t-34" value="" style="outlineConnect=0;dashed=0;verticalLabelPosition=bottom;verticalAlign=top;align=center;html=1;shape=mxgraph.aws3.machine_learning;fillColor=#2E73B8;gradientColor=none;" parent="1" vertex="1">
          <mxGeometry x="709.7" y="498" width="60" height="72" as="geometry" />
        </mxCell>
        <mxCell id="idA23eLzwnvXHclKKF_t-35" value="BI &amp;amp; Reporting" style="text;html=1;align=center;verticalAlign=middle;whiteSpace=wrap;rounded=0;" parent="1" vertex="1">
          <mxGeometry x="690" y="330" width="110" height="30" as="geometry" />
        </mxCell>
        <mxCell id="idA23eLzwnvXHclKKF_t-36" value="Ad-Hoc&lt;div&gt;SQL Queries&lt;/div&gt;" style="text;html=1;align=center;verticalAlign=middle;whiteSpace=wrap;rounded=0;" parent="1" vertex="1">
          <mxGeometry x="685" y="442" width="110" height="30" as="geometry" />
        </mxCell>
        <mxCell id="idA23eLzwnvXHclKKF_t-37" value="Machine Learning" style="text;html=1;align=center;verticalAlign=middle;whiteSpace=wrap;rounded=0;" parent="1" vertex="1">
          <mxGeometry x="684.7" y="570" width="110" height="30" as="geometry" />
        </mxCell>
        <mxCell id="_M1kSCMp3HHQTVleh_6A-1" value="&lt;font style=&quot;font-size: 34px;&quot;&gt;&lt;b style=&quot;&quot;&gt;Data Layers&lt;/b&gt;&lt;/font&gt;" style="text;html=1;align=center;verticalAlign=middle;whiteSpace=wrap;rounded=0;" vertex="1" parent="1">
          <mxGeometry x="214" y="58" width="481" height="63" as="geometry" />
        </mxCell>
      </root>
    </mxGraphModel>
  </diagram>
</mxfile>
